<svg display="none" xmlns="http://www.w3.org/2000/svg">



<symbol viewBox="0 0 512 512" id="html5"><path d="M64 32l34.936 403.301L255.769 480l157.245-44.705L448 32H64zm319.041 378.51l-127.262 36.187-126.867-36.169L98.896 64H413.1l-30.059 346.51z" fill="currentColor"></path><path d="M147.991 264h166.993l-5.573 63.986-53.42 14.748-53.766-14.67L198.801 289H150.55l6.763 77.336 98.678 27.81 98.495-27.983L367.991 215h-176L188 164h183.991l4.208-49.684-240.778-.128z" fill="currentColor"></path></symbol>

<symbol viewBox="0 0 512 512" id="css3"><path d="M354.676 366.898l-98.608 28.125-98.458-28.248L150.864 289h48.253l3.433 39.563 53.586 15.163.132.273h.034l53.467-14.852L315.381 265H203l-4-50h120.646l4.396-51H140l-4-49h240.58l-21.904 251.898z" fill="currentColor"></path><path d="M64 32l34.936 403.301L255.769 480l157.245-44.705L448 32H64zm319.041 378.51l-127.262 36.187-126.867-36.169L98.896 64H413.1l-30.059 346.51z" fill="currentColor"></path></symbol>

<symbol viewBox="0 0 24 24" id="js"><path fill="currentColor" d="M11.181 2.213a1.677 1.677 0 0 1 1.637 0l7.479 4.225a1.54 1.54 0 0 1 .778 1.325v8.475a1.556 1.556 0 0 1-.836 1.354l-7.452 4.204a1.63 1.63 0 0 1-1.655-.046l-2.236-1.292a1.316 1.316 0 0 1-.432-.311c.095-.128.265-.144.403-.2a5.22 5.22 0 0 0 .883-.412a.206.206 0 0 1 .23.014c.636.365 1.267.741 1.907 1.103c.136.079.274-.026.39-.09q3.658-2.068 7.317-4.13a.242.242 0 0 0 .133-.238q.003-4.193.001-8.387a.262.262 0 0 0-.156-.261q-3.714-2.092-7.426-4.186a.258.258 0 0 0-.292 0Q8.141 5.452 4.43 7.547a.259.259 0 0 0-.157.26v8.387a.237.237 0 0 0 .135.235q.99.562 1.983 1.12a1.532 1.532 0 0 0 1.24.166a.94.94 0 0 0 .609-.883c.003-2.78-.002-5.56.002-8.338a.21.21 0 0 1 .228-.214c.318-.002.635-.004.953.001a.22.22 0 0 1 .207.254c-.001 2.797.003 5.594-.002 8.39a2.127 2.127 0 0 1-.995 1.922a3.064 3.064 0 0 1-2.738-.075c-.727-.363-1.42-.79-2.133-1.18a1.553 1.553 0 0 1-.835-1.354V7.763a1.542 1.542 0 0 1 .804-1.342q3.726-2.103 7.451-4.208Z"></path><path fill="currentColor" d="M13.348 8.083a5.88 5.88 0 0 1 3.218.493a2.434 2.434 0 0 1 1.187 2.106a.228.228 0 0 1-.247.168c-.315 0-.629.004-.943-.002a.243.243 0 0 1-.228-.236a1.436 1.436 0 0 0-.687-.992a4.071 4.071 0 0 0-1.884-.27a2.558 2.558 0 0 0-1.349.336a.855.855 0 0 0-.284.955c.101.24.378.317.605.388c1.306.342 2.69.308 3.97.757a1.87 1.87 0 0 1 1.23 1.095a2.338 2.338 0 0 1-.396 2.23a3.126 3.126 0 0 1-1.678.905a8.063 8.063 0 0 1-2.533.108a3.992 3.992 0 0 1-2.228-.839a2.338 2.338 0 0 1-.753-1.844a.211.211 0 0 1 .231-.186c.317-.003.633-.004.95 0a.222.222 0 0 1 .226.22a1.439 1.439 0 0 0 .536 1.01a4.06 4.06 0 0 0 2.187.398a2.97 2.97 0 0 0 1.794-.439a.99.99 0 0 0 .27-.946c-.078-.28-.37-.41-.621-.495c-1.29-.408-2.688-.26-3.965-.72a1.93 1.93 0 0 1-1.218-1.063a2.175 2.175 0 0 1 .434-2.262a3.506 3.506 0 0 1 2.176-.875"></path></symbol>

<symbol viewBox="0 0 128 128" id="js"><path fill="currentColor" d="M2 1v125h125V1zm66.119 106.513c-1.845 3.749-5.367 6.212-9.448 7.401c-6.271 1.44-12.269.619-16.731-2.059c-2.986-1.832-5.318-4.652-6.901-7.901l9.52-5.83c.083.035.333.487.667 1.071c1.214 2.034 2.261 3.474 4.319 4.485c2.022.69 6.461 1.131 8.175-2.427c1.047-1.81.714-7.628.714-14.065C58.433 78.073 58.48 68 58.48 58h11.709c0 11 .06 21.418 0 32.152c.025 6.58.596 12.446-2.07 17.361m48.574-3.308c-4.07 13.922-26.762 14.374-35.83 5.176c-1.916-2.165-3.117-3.296-4.26-5.795c4.819-2.772 4.819-2.772 9.508-5.485c2.547 3.915 4.902 6.068 9.139 6.949c5.748.702 11.531-1.273 10.234-7.378c-1.333-4.986-11.77-6.199-18.873-11.531c-7.211-4.843-8.901-16.611-2.975-23.335c1.975-2.487 5.343-4.343 8.877-5.235l3.688-.477c7.081-.143 11.507 1.727 14.756 5.355c.904.916 1.642 1.904 3.022 4.045c-3.772 2.404-3.76 2.381-9.163 5.879c-1.154-2.486-3.069-4.046-5.093-4.724c-3.142-.952-7.104.083-7.926 3.403c-.285 1.023-.226 1.975.227 3.665c1.273 2.903 5.545 4.165 9.377 5.926c11.031 4.474 14.756 9.271 15.672 14.981c.882 4.916-.213 8.105-.38 8.581"></path></symbol>

<symbol viewBox="0 0 2048 2048" id="react"><path fill="currentColor" d="M2048 1039q0 47-21 88t-57 75t-81 63t-92 51t-94 40t-82 28q15 63 24 126t9 127q0 53-9 109t-34 101t-67 75t-108 29q-55 0-112-21t-111-55t-102-72t-87-75q-38 36-86 75t-103 72t-111 54t-112 22q-65 0-107-29t-67-74t-34-102t-10-109q0-64 9-127t24-126q-37-11-82-28t-93-39t-93-51t-80-63t-57-76t-22-88q0-47 21-88t57-75t81-63t92-51t94-40t82-28q-15-63-24-126t-9-127q0-53 9-109t34-101t67-75t108-29q55 0 112 21t111 55t102 72t87 76q38-36 86-75t103-73t111-54t112-22q65 0 107 29t67 74t34 102t10 109q0 64-9 127t-24 126q36 11 82 28t93 39t93 51t80 63t57 76t22 88m-612-816q-43 0-91 20t-94 49t-88 64t-71 62q47 49 88 101t81 107q69 6 136 17t133 27q13-56 21-113t8-114q0-30-4-68t-16-72t-37-57t-66-23m-834 930q-17 41-31 81t-28 83q43 11 86 18t87 13q-31-48-59-96t-55-99m-59-392q13 42 27 83t32 82q26-51 55-99t59-97q-44 6-87 13t-86 18m109 278q80 166 186 322q47 4 93 5t93 2q47 0 93-1t93-6q106-156 186-322q-42-85-87-164t-99-158q-47-3-93-5t-93-2t-93 2t-93 5q-53 78-98 157t-88 165m680 309q44-5 87-12t86-19q-13-42-27-82t-32-82q-26 51-54 99t-60 96m114-422q17-41 31-82t28-83q-43-10-86-17t-87-14q30 48 59 96t55 100m-311-309q-26-35-53-67t-58-65q-30 32-57 64t-54 68q55-3 111-3q55 0 111 3M489 443q0 57 8 114t21 113q66-16 133-27t136-17q39-55 80-107t89-101q-30-28-71-62t-87-63t-95-50t-91-20q-41 0-65 23t-37 56t-17 72t-4 69m-38 849q20-65 44-128t52-125q-28-62-52-125t-44-128q-24 7-59 19t-74 30t-79 40t-71 48t-52 55t-20 61q0 32 19 61t51 55t71 48t79 39t75 30t60 20m161 563q43 0 91-20t94-49t88-63t71-62q-47-49-88-101t-81-108q-68-6-135-17t-134-26q-13 56-21 112t-8 114q0 31 3 69t17 72t37 56t66 23m301-393q52 69 111 132q58-63 111-132q-56 3-111 3q-57 0-111-3m646 173q0-57-8-113t-21-113q-67 15-134 26t-135 17q-39 55-80 107t-89 102q30 28 71 61t87 63t95 50t91 20q41 0 65-22t37-56t17-72t4-70m38-343q24-7 59-19t75-30t79-40t71-48t51-55t20-61q0-32-20-61t-51-55t-71-48t-79-39t-75-30t-59-20q-20 65-44 128t-52 125q28 62 52 125t44 128m-573-62q-39 0-74-15t-60-41t-41-61t-15-74q0-39 15-74t40-60t61-41t74-15q39 0 74 15t60 40t41 61t15 74q0 39-15 74t-40 61t-61 41t-74 15"></path></symbol>

<symbol viewBox="0 0 24 24" id="git"><g fill="none"><g clip-path="url(#akarIconsGithubFill0)"><path fill="currentColor" fill-rule="evenodd" d="M12 0C5.37 0 0 5.37 0 12c0 5.31 3.435 9.795 8.205 11.385c.6.105.825-.255.825-.57c0-.285-.015-1.23-.015-2.235c-3.015.555-3.795-.735-4.035-1.41c-.135-.345-.72-1.41-1.23-1.695c-.42-.225-1.02-.78-.015-.795c.945-.015 1.62.87 1.845 1.23c1.08 1.815 2.805 1.305 3.495.99c.105-.78.42-1.305.765-1.605c-2.67-.3-5.46-1.335-5.46-5.925c0-1.305.465-2.385 1.23-3.225c-.12-.3-.54-1.53.12-3.18c0 0 1.005-.315 3.3 1.23c.96-.27 1.98-.405 3-.405s2.04.135 3 .405c2.295-1.56 3.3-1.23 3.3-1.23c.66 1.65.24 2.88.12 3.18c.765.84 1.23 1.905 1.23 3.225c0 4.605-2.805 5.625-5.475 5.925c.435.375.81 1.095.81 2.22c0 1.605-.015 2.895-.015 3.3c0 .315.225.69.825.57A12.02 12.02 0 0 0 24 12c0-6.63-5.37-12-12-12" clip-rule="evenodd"></path></g><defs><clipPath id="akarIconsGithubFill0"><path fill="#fff" d="M0 0h24v24H0z"></path></clipPath></defs></g></symbol>

<symbol viewBox="0 0 24 24" id="vue"><path fill="currentColor" d="m12 12.765l5.592-9.437h-3.276L12 7.33v.002L9.688 3.328h-3.28z"></path><path fill="currentColor" d="M18.461 3.332L12 14.235L5.539 3.332H1.992L12 20.672l10.008-17.34z"></path></symbol>

<symbol viewBox="0 0 48 48" id="api"><path fill="none" stroke="currentColor" stroke-linecap="round" stroke-linejoin="round" stroke-width="4" d="m37 22l-3 3l-11-11l3-3c1.5-1.5 7-4 11 0s1.5 9.5 0 11m5-16l-5 5M11 26l3-3l11 11l-3 3c-1.5 1.5-7 4-11 0s-1.5-9.5 0-11m12 6l4-4M6 42l5-5m5-12l4-4"></path></symbol>

<symbol viewBox="0 0 24 24" id="psql"><path fill="currentColor" d="M16.805 1a9.85 9.85 0 0 0-2.603.37l-.06.018a10.629 10.629 0 0 0-1.615-.151c-1.113-.019-2.07.243-2.84.68c-.76-.256-2.336-.697-3.997-.609c-1.157.061-2.419.402-3.354 1.36c-.933.958-1.426 2.44-1.322 4.457c.028.557.191 1.464.463 2.64c.27 1.175.652 2.55 1.127 3.805c.475 1.256.996 2.384 1.81 3.15c.406.384.965.707 1.624.68c.463-.018.882-.215 1.243-.506c.176.225.364.323.535.414c.215.114.425.192.642.244a4.61 4.61 0 0 0 1.84.091c.267-.043.548-.127.828-.247c.01.302.022.598.035.898c.038.95.063 1.827.357 2.596c.047.126.176.773.687 1.344c.51.572 1.51.928 2.648.692c.803-.167 1.825-.468 2.503-1.404c.67-.926.973-2.254 1.033-4.409c.015-.116.033-.215.052-.308l.16.014h.018c.857.038 1.787-.08 2.564-.43c.688-.31 1.208-.622 1.587-1.177c.095-.137.199-.303.227-.59c.028-.285-.14-.733-.421-.939c-.563-.414-.916-.257-1.295-.18c-.373.08-.753.124-1.136.133c1.093-1.784 1.876-3.68 2.323-5.358c.264-.99.413-1.903.425-2.701c.012-.798-.055-1.505-.548-2.117c-1.541-1.91-3.708-2.438-5.384-2.456c-.052-.001-.104-.002-.156-.001zm-.044.587c1.585-.015 3.611.417 5.065 2.22c.327.405.424.997.413 1.727c-.012.729-.151 1.601-.405 2.557c-.493 1.852-1.425 4.01-2.738 5.948a.724.724 0 0 0 .15.079c.274.11.898.204 2.145-.044c.313-.065.543-.108.781.068a.478.478 0 0 1 .173.39a.635.635 0 0 1-.123.308c-.24.351-.716.684-1.326.958c-.539.244-1.313.371-1.999.379c-.344.003-.661-.023-.93-.104l-.018-.006c-.104.971-.343 2.89-.498 3.765c-.125.706-.343 1.267-.76 1.687c-.416.42-1.004.673-1.796.838c-.981.204-1.696-.016-2.157-.393c-.46-.375-.671-.874-.798-1.18c-.087-.21-.132-.483-.176-.848a18.073 18.073 0 0 1-.097-1.315a45.725 45.725 0 0 1-.028-2.312c-.41.363-.92.605-1.467.696c-.65.107-1.232.002-1.579-.082a2.19 2.19 0 0 1-.49-.185c-.162-.083-.315-.177-.417-.363a.5.5 0 0 1-.054-.35a.559.559 0 0 1 .206-.303c.188-.148.435-.23.808-.306c.68-.135.917-.228 1.061-.339c.123-.095.262-.287.508-.57a1.166 1.166 0 0 1-.003-.037a2.864 2.864 0 0 1-1.257-.328c-.141.144-.865.887-1.748 1.917c-.371.431-.781.678-1.214.696c-.433.018-.824-.194-1.156-.506c-.665-.626-1.195-1.703-1.657-2.92c-.46-1.218-.836-2.574-1.102-3.729c-.268-1.155-.426-2.086-.448-2.535c-.1-1.909.36-3.195 1.15-4.006c.79-.811 1.872-1.118 2.928-1.177c1.894-.106 3.693.535 4.057.673c.701-.462 1.604-.75 2.733-.732a7.185 7.185 0 0 1 1.588.2l.019-.008c.229-.078.462-.144.698-.196a9.362 9.362 0 0 1 1.957-.23zm.143.614h-.137a8.502 8.502 0 0 0-1.61.176a7.048 7.048 0 0 1 2.692 2.062a7.72 7.72 0 0 1 1.07 1.76c.104.242.174.447.213.605c.02.08.034.147.038.217a.392.392 0 0 1-.011.132l-.006.012c.029.803-.176 1.347-.201 2.113c-.019.556.127 1.209.163 1.92c.034.67-.049 1.405-.497 2.127c.038.044.072.088.108.132c1.185-1.81 2.04-3.814 2.495-5.521c.243-.92.373-1.753.384-2.413c.01-.66-.117-1.139-.279-1.338c-1.268-1.573-2.983-1.974-4.422-1.985zm-4.525.235c-1.117.002-1.919.33-2.526.82c-.627.507-1.047 1.2-1.323 1.911a7.898 7.898 0 0 0-.485 2.213l.013-.007c.337-.184.78-.367 1.254-.473c.475-.106.986-.139 1.449.035c.463.175.846.584.985 1.206c.665 2.986-.207 4.096-.529 4.933a8.628 8.628 0 0 0-.312.929c.04-.01.08-.02.121-.024a1.06 1.06 0 0 1 .51.1c.324.13.546.402.666.714c.031.082.054.17.067.26c.014.038.02.077.019.117a49.059 49.059 0 0 0 .012 3.426c.022.494.054.928.095 1.271c.04.342.098.602.135.69c.12.294.297.678.617.939c.32.26.777.434 1.614.26c.726-.151 1.174-.36 1.474-.663c.298-.301.477-.72.591-1.363c.171-.963.515-3.754.556-4.28c-.018-.395.042-.7.172-.932c.135-.238.343-.384.522-.463c.09-.04.174-.066.243-.085a5.487 5.487 0 0 0-.23-.298a4.065 4.065 0 0 1-.629-1.007a7.578 7.578 0 0 0-.243-.443c-.125-.22-.284-.495-.45-.804c-.333-.619-.695-1.369-.883-2.1c-.187-.729-.215-1.484.265-2.017c.426-.473 1.172-.669 2.293-.559c-.033-.096-.053-.176-.109-.304a7.125 7.125 0 0 0-.983-1.617c-.95-1.178-2.487-2.346-4.863-2.384h-.108zm-6.276.047c-.12 0-.24.004-.36.01c-.954.053-1.856.322-2.501.986c-.647.663-1.072 1.751-.98 3.553c.019.34.172 1.296.434 2.43c.262 1.136.634 2.471 1.08 3.65c.446 1.18.988 2.207 1.502 2.693c.259.243.484.341.688.333c.205-.01.451-.124.753-.475a40.03 40.03 0 0 1 1.71-1.877a3.206 3.206 0 0 1-.932-1.307a3.116 3.116 0 0 1-.17-1.58c.097-.678.11-1.312.099-1.812c-.012-.488-.048-.812-.048-1.015v-.028a8.806 8.806 0 0 1 .559-3.095c.264-.682.658-1.375 1.249-1.936c-.58-.185-1.61-.467-2.725-.52a7.4 7.4 0 0 0-.36-.01zm11.714 4.842c-.641.008-1.001.169-1.19.379c-.268.298-.293.82-.127 1.464c.165.644.507 1.365.829 1.963c.16.3.316.57.442.788c.127.22.22.376.276.51c.052.122.11.23.168.331c.248-.509.293-1.008.267-1.529c-.033-.644-.187-1.303-.164-1.97c.025-.78.184-1.289.198-1.892a5.639 5.639 0 0 0-.699-.044m-7.78.105a2.743 2.743 0 0 0-.582.068a4.49 4.49 0 0 0-1.09.412c-.115.06-.226.13-.33.209l-.02.018c.006.134.033.459.045.936c.01.523-.002 1.19-.106 1.91c-.226 1.568.946 2.866 2.324 2.868c.08-.322.213-.648.345-.992c.384-1.003 1.139-1.734.503-4.589c-.104-.467-.31-.656-.594-.763a1.431 1.431 0 0 0-.495-.077m7.48.187h.048c.062.002.12.009.17.02a.396.396 0 0 1 .13.051a.153.153 0 0 1 .071.1v.008a.215.215 0 0 1-.034.124a.614.614 0 0 1-.104.137a.646.646 0 0 1-.364.195a.57.57 0 0 1-.388-.095a.569.569 0 0 1-.123-.108a.235.235 0 0 1-.06-.116a.151.151 0 0 1 .04-.118a.361.361 0 0 1 .111-.082a1.256 1.256 0 0 1 .504-.118zm-7.388.154c.05 0 .103.005.157.012c.144.02.273.057.371.112c.048.025.09.057.126.097a.214.214 0 0 1 .042.073a.195.195 0 0 1 .009.083a.274.274 0 0 1-.071.141a.608.608 0 0 1-.135.12a.619.619 0 0 1-.424.103a.694.694 0 0 1-.396-.209a.652.652 0 0 1-.112-.15a.25.25 0 0 1-.039-.162c.014-.1.099-.15.18-.18a.842.842 0 0 1 .29-.036zm8.56 6.732h-.003c-.139.05-.253.07-.35.11a.423.423 0 0 0-.225.197c-.06.105-.11.292-.095.61a.49.49 0 0 0 .14.064c.161.048.432.08.735.075c.602-.007 1.344-.143 1.738-.321c.323-.146.623-.336.891-.564c-1.317.264-2.06.194-2.517.011a1.247 1.247 0 0 1-.314-.183zm-7.588.086h-.02c-.05.004-.123.02-.263.172c-.33.358-.444.582-.716.792c-.27.21-.623.321-1.327.461c-.223.044-.35.093-.436.132c.028.022.025.028.066.049c.103.055.236.103.342.13c.303.073.8.159 1.319.073c.518-.086 1.058-.327 1.518-.953c.08-.108.088-.268.023-.44c-.067-.17-.211-.318-.313-.36a.632.632 0 0 0-.193-.054z"></path></symbol>

<symbol viewBox="0 0 16 16" id="db"><path fill="currentColor" d="M4.318 2.687C5.234 2.271 6.536 2 8 2s2.766.27 3.682.687C12.644 3.125 13 3.627 13 4c0 .374-.356.875-1.318 1.313C10.766 5.729 9.464 6 8 6s-2.766-.27-3.682-.687C3.356 4.875 3 4.373 3 4c0-.374.356-.875 1.318-1.313M13 5.698V7c0 .374-.356.875-1.318 1.313C10.766 8.729 9.464 9 8 9s-2.766-.27-3.682-.687C3.356 7.875 3 7.373 3 7V5.698c.271.202.58.378.904.525C4.978 6.711 6.427 7 8 7s3.022-.289 4.096-.777A5 5 0 0 0 13 5.698M14 4c0-1.007-.875-1.755-1.904-2.223C11.022 1.289 9.573 1 8 1s-3.022.289-4.096.777C2.875 2.245 2 2.993 2 4v9c0 1.007.875 1.755 1.904 2.223C4.978 15.71 6.427 16 8 16s3.022-.289 4.096-.777C13.125 14.755 14 14.007 14 13zm-1 4.698V10c0 .374-.356.875-1.318 1.313C10.766 11.729 9.464 12 8 12s-2.766-.27-3.682-.687C3.356 10.875 3 10.373 3 10V8.698c.271.202.58.378.904.525C4.978 9.71 6.427 10 8 10s3.022-.289 4.096-.777A5 5 0 0 0 13 8.698m0 3V13c0 .374-.356.875-1.318 1.313C10.766 14.729 9.464 15 8 15s-2.766-.27-3.682-.687C3.356 13.875 3 13.373 3 13v-1.302c.271.202.58.378.904.525C4.978 12.71 6.427 13 8 13s3.022-.289 4.096-.777c.324-.147.633-.323.904-.525"></path></symbol>

<symbol viewBox="0 0 24 24" id="figma"><g fill="none"><g clip-path="url(#akarIconsFigmaFill0)"><path fill="currentColor" fill-rule="evenodd" d="M8.415 0C5.968 0 4 2.053 4 4.568c0 1.529.728 2.887 1.847 3.716A4.613 4.613 0 0 0 4 12c0 1.53.728 2.887 1.847 3.716A4.613 4.613 0 0 0 4 19.432C4 21.947 5.968 24 8.415 24c2.446 0 4.415-2.053 4.415-4.568V15.57a4.307 4.307 0 0 0 2.755.999C18.032 16.568 20 14.515 20 12a4.61 4.61 0 0 0-1.847-3.716A4.613 4.613 0 0 0 20 4.568C20 2.053 18.032 0 15.585 0zM5.659 4.568c0-1.591 1.242-2.865 2.756-2.865h2.755v5.73H8.415c-1.514 0-2.756-1.275-2.756-2.865m9.926 2.864H12.83v-5.73h2.755c1.515 0 2.756 1.275 2.756 2.866c0 1.59-1.241 2.864-2.756 2.864M5.66 12c0-1.59 1.242-2.865 2.756-2.865h2.755v5.73H8.415C6.9 14.865 5.659 13.59 5.659 12m7.17 0c0-1.59 1.242-2.865 2.756-2.865c1.515 0 2.756 1.274 2.756 2.865c0 1.59-1.241 2.865-2.756 2.865c-1.514 0-2.755-1.274-2.755-2.865m-7.17 7.432c0-1.59 1.242-2.864 2.756-2.864h2.755v2.864c0 1.591-1.24 2.865-2.755 2.865c-1.514 0-2.756-1.274-2.756-2.865" clip-rule="evenodd"></path></g><defs><clipPath id="akarIconsFigmaFill0"><path fill="#fff" d="M0 0h24v24H0z"></path></clipPath></defs></g></symbol>

<symbol viewBox="0 0 18 24" id="jira"><path fill="currentColor" d="M17.97 5.826a.455.455 0 0 0-.285-.1h-.015h.001a.727.727 0 0 0-.177.027l.005-.001c-.86.342-1.909.665-2.988.911l-.151.029a.626.626 0 0 0-.43.374l-.001.004c-.722 1.965-2.557 3.844-4.48 5.811a.505.505 0 0 1-.359.172h-.001a.47.47 0 0 1-.361-.169l-.001-.001C6.799 10.913 4.965 9.05 4.239 7.07a.648.648 0 0 0-.429-.375l-.004-.001A24.752 24.752 0 0 1 .499 5.683l.172.058a.36.36 0 0 0-.149-.031l-.028.001h.001h-.009a.474.474 0 0 0-.292.101l.001-.001a.509.509 0 0 0-.19.44v-.002a10.302 10.302 0 0 0 1.997 4.941l-.019-.026a36.782 36.782 0 0 0 3.909 4.441l.011.01c2.544 2.6 4.956 5.06 5.173 7.905a.501.501 0 0 0 .495.465h2.992a.534.534 0 0 0 .361-.157a.504.504 0 0 0 .131-.341v-.022v.001a11.318 11.318 0 0 0-2.221-5.87l.021.03c-.29-.42-.594-.837-.925-1.244a.368.368 0 0 1 .027-.476l.3-.306a36.575 36.575 0 0 0 3.852-4.359l.067-.094a10.135 10.135 0 0 0 1.975-4.866l.005-.05l.001-.024a.482.482 0 0 0-.186-.381zM5.857 17.843a.448.448 0 0 0-.334-.149h-.01h.001a.5.5 0 0 0-.405.232l-.001.002a10.917 10.917 0 0 0-1.993 5.514l-.002.037v.017c0 .132.05.253.132.344c.085.098.21.16.349.16h.013h-.001h2.993a.492.492 0 0 0 .491-.463v-.001a6.52 6.52 0 0 1 .855-2.704l-.017.031a.697.697 0 0 0-.06-.754l.001.002a27.47 27.47 0 0 0-2.012-2.272l.002.002z"></path><path fill="currentColor" d="M10.757 7.229a.453.453 0 0 1 .398.653l.001-.003a8.18 8.18 0 0 1-1.749 2.559l-.001.001a.475.475 0 0 1-.327.129h-.021h.001h-.015a.49.49 0 0 1-.332-.13a8.09 8.09 0 0 1-1.73-2.511l-.02-.052a.496.496 0 0 1-.041-.184v-.002c0-.25.198-.453.446-.462h.001c.216 0 .766.058 1.706.058s1.49-.058 1.677-.058zM3.92 1.43a1.575 1.575 0 1 0 1.575 1.578A1.58 1.58 0 0 0 3.92 1.434zm10.321 0a1.575 1.575 0 1 0 1.575 1.575v-.001a1.58 1.58 0 0 0-1.575-1.57zM9.081 0a1.577 1.577 0 1 0 1.577 1.577v-.001A1.578 1.578 0 0 0 9.081 0"></path></symbol>

<symbol  viewBox="0 0 50 50" id="point"><path d="M 28.875 0 C 28.855469 0.0078125 28.832031 0.0195313 28.8125 0.03125 L 0.8125 5.34375 C 0.335938 5.433594 -0.0078125 5.855469 0 6.34375 L 0 43.65625 C -0.0078125 44.144531 0.335938 44.566406 0.8125 44.65625 L 28.8125 49.96875 C 29.101563 50.023438 29.402344 49.949219 29.632813 49.761719 C 29.859375 49.574219 29.996094 49.296875 30 49 L 30 44 L 47 44 C 48.09375 44 49 43.09375 49 42 L 49 8 C 49 6.90625 48.09375 6 47 6 L 30 6 L 30 1 C 30.003906 0.710938 29.878906 0.4375 29.664063 0.246094 C 29.449219 0.0546875 29.160156 -0.0351563 28.875 0 Z M 28 2.1875 L 28 6.6875 C 27.941406 6.882813 27.941406 7.085938 28 7.28125 L 28 42.8125 C 27.972656 42.945313 27.972656 43.085938 28 43.21875 L 28 47.8125 L 2 42.84375 L 2 7.15625 Z M 30 8 L 47 8 L 47 42 L 30 42 L 30 37 L 40 37 L 40 35 L 30 35 L 30 29.4375 C 30.921875 29.804688 31.949219 30 33 30 C 37.40625 30 41 26.40625 41 22 L 41 21 L 34 21 L 34 14 L 33 14 C 31.941406 14 30.929688 14.191406 30 14.5625 Z M 35 11 L 35 20 L 44 20 L 44 19 C 44 14.59375 40.40625 11 36 11 Z M 37 13.1875 C 39.492188 13.617188 41.382813 15.507813 41.8125 18 L 37 18 Z M 8.15625 15.65625 L 8.15625 34.375 L 12.375 34.375 L 12.375 27.9375 L 14.375 27.9375 C 16.636719 27.9375 18.460938 27.347656 19.8125 26.1875 C 21.164063 25.027344 21.84375 23.503906 21.84375 21.625 C 21.84375 17.648438 19.464844 15.65625 14.75 15.65625 Z M 32 16.25 L 32 23 L 38.8125 23 C 38.324219 25.828125 35.972656 28 33 28 C 31.953125 28 30.980469 27.71875 30.125 27.25 C 30.085938 27.226563 30.042969 27.207031 30 27.1875 L 30 16.8125 C 30.03125 16.792969 30.0625 16.773438 30.09375 16.75 C 30.660156 16.433594 31.339844 16.367188 32 16.25 Z M 12.375 18.90625 L 14.03125 18.90625 C 16.273438 18.90625 17.40625 19.859375 17.40625 21.78125 C 17.40625 23.746094 16.273438 24.71875 14.03125 24.71875 L 12.375 24.71875 Z"></path></symbol>

</svg>

