<svg display="none" xmlns="http://www.w3.org/2000/svg">



<symbol viewBox="0 0 512 512" id="html5"><path d="M64 32l34.936 403.301L255.769 480l157.245-44.705L448 32H64zm319.041 378.51l-127.262 36.187-126.867-36.169L98.896 64H413.1l-30.059 346.51z" fill="currentColor"></path><path d="M147.991 264h166.993l-5.573 63.986-53.42 14.748-53.766-14.67L198.801 289H150.55l6.763 77.336 98.678 27.81 98.495-27.983L367.991 215h-176L188 164h183.991l4.208-49.684-240.778-.128z" fill="currentColor"></path></symbol>

<symbol viewBox="0 0 512 512" id="css3"><path d="M354.676 366.898l-98.608 28.125-98.458-28.248L150.864 289h48.253l3.433 39.563 53.586 15.163.132.273h.034l53.467-14.852L315.381 265H203l-4-50h120.646l4.396-51H140l-4-49h240.58l-21.904 251.898z" fill="currentColor"></path><path d="M64 32l34.936 403.301L255.769 480l157.245-44.705L448 32H64zm319.041 378.51l-127.262 36.187-126.867-36.169L98.896 64H413.1l-30.059 346.51z" fill="currentColor"></path></symbol>

<symbol viewBox="0 0 24 24" id="js"><path fill="currentColor" d="M11.181 2.213a1.677 1.677 0 0 1 1.637 0l7.479 4.225a1.54 1.54 0 0 1 .778 1.325v8.475a1.556 1.556 0 0 1-.836 1.354l-7.452 4.204a1.63 1.63 0 0 1-1.655-.046l-2.236-1.292a1.316 1.316 0 0 1-.432-.311c.095-.128.265-.144.403-.2a5.22 5.22 0 0 0 .883-.412a.206.206 0 0 1 .23.014c.636.365 1.267.741 1.907 1.103c.136.079.274-.026.39-.09q3.658-2.068 7.317-4.13a.242.242 0 0 0 .133-.238q.003-4.193.001-8.387a.262.262 0 0 0-.156-.261q-3.714-2.092-7.426-4.186a.258.258 0 0 0-.292 0Q8.141 5.452 4.43 7.547a.259.259 0 0 0-.157.26v8.387a.237.237 0 0 0 .135.235q.99.562 1.983 1.12a1.532 1.532 0 0 0 1.24.166a.94.94 0 0 0 .609-.883c.003-2.78-.002-5.56.002-8.338a.21.21 0 0 1 .228-.214c.318-.002.635-.004.953.001a.22.22 0 0 1 .207.254c-.001 2.797.003 5.594-.002 8.39a2.127 2.127 0 0 1-.995 1.922a3.064 3.064 0 0 1-2.738-.075c-.727-.363-1.42-.79-2.133-1.18a1.553 1.553 0 0 1-.835-1.354V7.763a1.542 1.542 0 0 1 .804-1.342q3.726-2.103 7.451-4.208Z"></path><path fill="currentColor" d="M13.348 8.083a5.88 5.88 0 0 1 3.218.493a2.434 2.434 0 0 1 1.187 2.106a.228.228 0 0 1-.247.168c-.315 0-.629.004-.943-.002a.243.243 0 0 1-.228-.236a1.436 1.436 0 0 0-.687-.992a4.071 4.071 0 0 0-1.884-.27a2.558 2.558 0 0 0-1.349.336a.855.855 0 0 0-.284.955c.101.24.378.317.605.388c1.306.342 2.69.308 3.97.757a1.87 1.87 0 0 1 1.23 1.095a2.338 2.338 0 0 1-.396 2.23a3.126 3.126 0 0 1-1.678.905a8.063 8.063 0 0 1-2.533.108a3.992 3.992 0 0 1-2.228-.839a2.338 2.338 0 0 1-.753-1.844a.211.211 0 0 1 .231-.186c.317-.003.633-.004.95 0a.222.222 0 0 1 .226.22a1.439 1.439 0 0 0 .536 1.01a4.06 4.06 0 0 0 2.187.398a2.97 2.97 0 0 0 1.794-.439a.99.99 0 0 0 .27-.946c-.078-.28-.37-.41-.621-.495c-1.29-.408-2.688-.26-3.965-.72a1.93 1.93 0 0 1-1.218-1.063a2.175 2.175 0 0 1 .434-2.262a3.506 3.506 0 0 1 2.176-.875"></path></symbol>

<symbol viewBox="0 0 128 128" id="js"><path fill="currentColor" d="M2 1v125h125V1zm66.119 106.513c-1.845 3.749-5.367 6.212-9.448 7.401c-6.271 1.44-12.269.619-16.731-2.059c-2.986-1.832-5.318-4.652-6.901-7.901l9.52-5.83c.083.035.333.487.667 1.071c1.214 2.034 2.261 3.474 4.319 4.485c2.022.69 6.461 1.131 8.175-2.427c1.047-1.81.714-7.628.714-14.065C58.433 78.073 58.48 68 58.48 58h11.709c0 11 .06 21.418 0 32.152c.025 6.58.596 12.446-2.07 17.361m48.574-3.308c-4.07 13.922-26.762 14.374-35.83 5.176c-1.916-2.165-3.117-3.296-4.26-5.795c4.819-2.772 4.819-2.772 9.508-5.485c2.547 3.915 4.902 6.068 9.139 6.949c5.748.702 11.531-1.273 10.234-7.378c-1.333-4.986-11.77-6.199-18.873-11.531c-7.211-4.843-8.901-16.611-2.975-23.335c1.975-2.487 5.343-4.343 8.877-5.235l3.688-.477c7.081-.143 11.507 1.727 14.756 5.355c.904.916 1.642 1.904 3.022 4.045c-3.772 2.404-3.76 2.381-9.163 5.879c-1.154-2.486-3.069-4.046-5.093-4.724c-3.142-.952-7.104.083-7.926 3.403c-.285 1.023-.226 1.975.227 3.665c1.273 2.903 5.545 4.165 9.377 5.926c11.031 4.474 14.756 9.271 15.672 14.981c.882 4.916-.213 8.105-.38 8.581"></path></symbol>

<symbol viewBox="0 0 2048 2048" id="react"><path fill="currentColor" d="M2048 1039q0 47-21 88t-57 75t-81 63t-92 51t-94 40t-82 28q15 63 24 126t9 127q0 53-9 109t-34 101t-67 75t-108 29q-55 0-112-21t-111-55t-102-72t-87-75q-38 36-86 75t-103 72t-111 54t-112 22q-65 0-107-29t-67-74t-34-102t-10-109q0-64 9-127t24-126q-37-11-82-28t-93-39t-93-51t-80-63t-57-76t-22-88q0-47 21-88t57-75t81-63t92-51t94-40t82-28q-15-63-24-126t-9-127q0-53 9-109t34-101t67-75t108-29q55 0 112 21t111 55t102 72t87 76q38-36 86-75t103-73t111-54t112-22q65 0 107 29t67 74t34 102t10 109q0 64-9 127t-24 126q36 11 82 28t93 39t93 51t80 63t57 76t22 88m-612-816q-43 0-91 20t-94 49t-88 64t-71 62q47 49 88 101t81 107q69 6 136 17t133 27q13-56 21-113t8-114q0-30-4-68t-16-72t-37-57t-66-23m-834 930q-17 41-31 81t-28 83q43 11 86 18t87 13q-31-48-59-96t-55-99m-59-392q13 42 27 83t32 82q26-51 55-99t59-97q-44 6-87 13t-86 18m109 278q80 166 186 322q47 4 93 5t93 2q47 0 93-1t93-6q106-156 186-322q-42-85-87-164t-99-158q-47-3-93-5t-93-2t-93 2t-93 5q-53 78-98 157t-88 165m680 309q44-5 87-12t86-19q-13-42-27-82t-32-82q-26 51-54 99t-60 96m114-422q17-41 31-82t28-83q-43-10-86-17t-87-14q30 48 59 96t55 100m-311-309q-26-35-53-67t-58-65q-30 32-57 64t-54 68q55-3 111-3q55 0 111 3M489 443q0 57 8 114t21 113q66-16 133-27t136-17q39-55 80-107t89-101q-30-28-71-62t-87-63t-95-50t-91-20q-41 0-65 23t-37 56t-17 72t-4 69m-38 849q20-65 44-128t52-125q-28-62-52-125t-44-128q-24 7-59 19t-74 30t-79 40t-71 48t-52 55t-20 61q0 32 19 61t51 55t71 48t79 39t75 30t60 20m161 563q43 0 91-20t94-49t88-63t71-62q-47-49-88-101t-81-108q-68-6-135-17t-134-26q-13 56-21 112t-8 114q0 31 3 69t17 72t37 56t66 23m301-393q52 69 111 132q58-63 111-132q-56 3-111 3q-57 0-111-3m646 173q0-57-8-113t-21-113q-67 15-134 26t-135 17q-39 55-80 107t-89 102q30 28 71 61t87 63t95 50t91 20q41 0 65-22t37-56t17-72t4-70m38-343q24-7 59-19t75-30t79-40t71-48t51-55t20-61q0-32-20-61t-51-55t-71-48t-79-39t-75-30t-59-20q-20 65-44 128t-52 125q28 62 52 125t44 128m-573-62q-39 0-74-15t-60-41t-41-61t-15-74q0-39 15-74t40-60t61-41t74-15q39 0 74 15t60 40t41 61t15 74q0 39-15 74t-40 61t-61 41t-74 15"></path></symbol>

<symbol viewBox="0 0 24 24" id="git"><g fill="none"><g clip-path="url(#akarIconsGithubFill0)"><path fill="currentColor" fill-rule="evenodd" d="M12 0C5.37 0 0 5.37 0 12c0 5.31 3.435 9.795 8.205 11.385c.6.105.825-.255.825-.57c0-.285-.015-1.23-.015-2.235c-3.015.555-3.795-.735-4.035-1.41c-.135-.345-.72-1.41-1.23-1.695c-.42-.225-1.02-.78-.015-.795c.945-.015 1.62.87 1.845 1.23c1.08 1.815 2.805 1.305 3.495.99c.105-.78.42-1.305.765-1.605c-2.67-.3-5.46-1.335-5.46-5.925c0-1.305.465-2.385 1.23-3.225c-.12-.3-.54-1.53.12-3.18c0 0 1.005-.315 3.3 1.23c.96-.27 1.98-.405 3-.405s2.04.135 3 .405c2.295-1.56 3.3-1.23 3.3-1.23c.66 1.65.24 2.88.12 3.18c.765.84 1.23 1.905 1.23 3.225c0 4.605-2.805 5.625-5.475 5.925c.435.375.81 1.095.81 2.22c0 1.605-.015 2.895-.015 3.3c0 .315.225.69.825.57A12.02 12.02 0 0 0 24 12c0-6.63-5.37-12-12-12" clip-rule="evenodd"></path></g><defs><clipPath id="akarIconsGithubFill0"><path fill="#fff" d="M0 0h24v24H0z"></path></clipPath></defs></g></symbol>

<symbol viewBox="0 0 24 24" id="vue"><path fill="currentColor" d="m12 12.765l5.592-9.437h-3.276L12 7.33v.002L9.688 3.328h-3.28z"></path><path fill="currentColor" d="M18.461 3.332L12 14.235L5.539 3.332H1.992L12 20.672l10.008-17.34z"></path></symbol>


</svg>