<svg display="none" xmlns="http://www.w3.org/2000/svg">

<symbol id="sound_2"><path fill="currentColor" d="M17.725 17.625H12.05L9.225 20.45q-.575.575-1.412.575T6.4 20.45l-2.825-2.825Q3 17.05 3 16.2t.575-1.425l2.8-2.8V6.3zm-10.5-13.25q2.675-1.7 5.788-1.362T18.375 5.6t2.588 5.363T19.6 16.75l-1.45-1.45q1.125-2.05.788-4.337T16.95 7.025t-3.937-1.987t-4.338.787zm2.95 2.95Q11.6 6.9 13.05 7.15t2.5 1.3t1.288 2.488t-.188 2.862l-1.7-1.7q0-.625-.187-1.212t-.613-1.013q-.45-.45-1.037-.65t-1.238-.2z"></path></symbol>

<symbol viewBox="0 0 24 24" id="sound"><g fill="none" fill-rule="evenodd"><path d="M24 0v24H0V0zM12.594 23.258l-.012.002l-.071.035l-.02.004l-.014-.004l-.071-.036c-.01-.003-.019 0-.024.006l-.004.01l-.017.428l.005.02l.01.013l.104.074l.015.004l.012-.004l.104-.074l.012-.016l.004-.017l-.017-.427c-.002-.01-.009-.017-.016-.018m.264-.113l-.014.002l-.184.093l-.01.01l-.003.011l.018.43l.005.012l.008.008l.201.092c.012.004.023 0 .029-.008l.004-.014l-.034-.614c-.003-.012-.01-.02-.02-.022m-.715.002a.023.023 0 0 0-.027.006l-.006.014l-.034.614c0 .012.007.02.017.024l.015-.002l.201-.093l.01-.008l.003-.011l.018-.43l-.003-.012l-.01-.01z"></path><path fill="currentColor" d="M10 4a1 1 0 0 1 1-1h3a1 1 0 1 1 0 2h-3a1 1 0 0 1-1-1m0 4a1 1 0 0 1 1-1h3a1 1 0 1 1 0 2h-3a1 1 0 0 1-1-1m7 0a1 1 0 0 1 1-1h3a1 1 0 1 1 0 2h-3a1 1 0 0 1-1-1M3 12a1 1 0 0 1 1-1h3a1 1 0 1 1 0 2H4a1 1 0 0 1-1-1m7 0a1 1 0 0 1 1-1h3a1 1 0 1 1 0 2h-3a1 1 0 0 1-1-1m7 0a1 1 0 0 1 1-1h3a1 1 0 1 1 0 2h-3a1 1 0 0 1-1-1M3 16a1 1 0 0 1 1-1h3a1 1 0 1 1 0 2H4a1 1 0 0 1-1-1m7 0a1 1 0 0 1 1-1h3a1 1 0 1 1 0 2h-3a1 1 0 0 1-1-1m7 0a1 1 0 0 1 1-1h3a1 1 0 1 1 0 2h-3a1 1 0 0 1-1-1M3 20a1 1 0 0 1 1-1h3a1 1 0 1 1 0 2H4a1 1 0 0 1-1-1m7 0a1 1 0 0 1 1-1h3a1 1 0 1 1 0 2h-3a1 1 0 0 1-1-1m7 0a1 1 0 0 1 1-1h3a1 1 0 1 1 0 2h-3a1 1 0 0 1-1-1"></path></g></symbol>

<symbol viewBox="0 0 640 512" id="code"><path fill="currentColor" d="m278.9 511.5l-61-17.7c-6.4-1.8-10-8.5-8.2-14.9L346.2 8.7c1.8-6.4 8.5-10 14.9-8.2l61 17.7c6.4 1.8 10 8.5 8.2 14.9L293.8 503.3c-1.9 6.4-8.5 10.1-14.9 8.2m-114-112.2l43.5-46.4c4.6-4.9 4.3-12.7-.8-17.2L117 256l90.6-79.7c5.1-4.5 5.5-12.3.8-17.2l-43.5-46.4c-4.5-4.8-12.1-5.1-17-.5L3.8 247.2c-5.1 4.7-5.1 12.8 0 17.5l144.1 135.1c4.9 4.6 12.5 4.4 17-.5m327.2.6l144.1-135.1c5.1-4.7 5.1-12.8 0-17.5L492.1 112.1c-4.8-4.5-12.4-4.3-17 .5L431.6 159c-4.6 4.9-4.3 12.7.8 17.2L523 256l-90.6 79.7c-5.1 4.5-5.5 12.3-.8 17.2l43.5 46.4c4.5 4.9 12.1 5.1 17 .6"></path></symbol>

<symbol viewBox="0 0 24 24" id="vscode"><g fill="currentColor"><g fill="currentColor" clip-path="url(#akarIconsVscodeFill0)"><path d="M.228 8.37s-.584-.427.117-.995L1.98 5.897s.467-.497.962-.064l15.081 11.542v5.534s-.007.87-1.11.774z"></path><path d="M4.116 11.937L.228 15.509s-.4.3 0 .837l1.805 1.66s.429.465 1.062-.065l4.121-3.158zm6.824.029l7.13-5.502l-.047-5.505s-.305-1.202-1.32-.576L7.216 9.11z"></path><path d="M16.912 23.69c.414.428.916.288.916.288l5.556-2.767c.711-.49.611-1.098.611-1.098V3.588c0-.726-.735-.977-.735-.977L18.444.264c-1.052-.657-1.741.119-1.741.119s.886-.645 1.32.576v21.85c0 .15-.032.297-.095.43c-.127.259-.402.5-1.062.4z"></path></g><defs><clipPath id="akarIconsVscodeFill0"><path fill="#fff" d="M0 0h24v24H0z"></path></clipPath></defs></g></symbol>

<symbol viewBox="0 0 24 24" id="gym"><path fill="currentColor" d="m20.274 9.869l-3.442-4.915l1.639-1.147l3.441 4.915zm-1.884 2.54L16.67 9.95l-8.192 5.736l1.72 2.457l-1.638 1.148l-4.588-6.554L5.61 11.59l1.72 2.458l8.192-5.736l-1.72-2.458l1.638-1.147l4.588 6.554zm2.375-5.326l1.638-1.147l-1.147-1.638l-1.638 1.147zM7.168 19.046l-3.442-4.915l-1.638 1.147l3.441 4.915zm-2.786-.491l-1.638 1.147l-1.147-1.638l1.638-1.147z"></path></symbol>   

<symbol viewBox="0 0 24 24" id="wood"><path fill="currentColor" d="M215.344 22.813L205.03 37.906l71.782 46.375l8.938-12.81c-15.62-23.633-44.153-40.97-70.406-48.657zm-38.47 18.843c-28.32 35.34-79.16 105.16-105.718 145.313c61.96 26.364 113.013 69.562 133.22 119.593c5.064 12.54 8.125 25.566 8.78 38.75c36.873-9.75 80.34-36.93 117.25-70.5c30.105-27.38 55.912-59.115 71.406-87.75L176.875 41.655zm240.657 155.53c-16.836 31.038-43.713 63.084-74.717 91.283c-40.21 36.57-87.238 66.474-130.47 76.03a105.8 105.8 0 0 1-6.343 24.72c-8.91 22.832-26.23 44.633-52.656 64.592c64.678 10.955 135.135-13.105 195.844-53.687c64.21-42.923 116.84-104.112 139.28-157.063l-70.937-45.875zM84.814 213.782L16.5 313.72v143.717l135.875-194.812c-18.23-18.513-41.412-35.295-67.563-48.844z"></path></symbol>

<symbol viewBox="0 0 512 512" id="axe"><path fill="currentColor" d="M18.53 19.688V61.03c72.043 13.54 136.044 34.786 205.126 63.907v.032c12.827 4.56 21.984 12.106 26.844 21.186c4.94 9.23 5.268 19.71 1.75 28.563c-6.227 15.67-24.807 25.573-45.78 20.374c-10.345 19.927-23.93 39.623-42.407 58.937a299 299 0 0 0 34.187 18.532H307.5c20.216-54.396 32.977-109.693 38.344-160.937c-104.518-15.22-203.62-46.673-297.813-91.938h-29.5zm317.095 229a714 714 0 0 1-8.22 24.093h28.94v18.69h-161.69v-.22h-.593l-1.843-.844c-16.61-7.513-32.607-16.53-48.126-27.062l-3.156-2.125c-10.943 4.44-19.705 9.41-25.563 14.342c-7.023 5.915-9.563 11.066-9.563 15.594c0 4.53 2.54 9.71 9.563 15.625c7.023 5.916 18.168 11.9 32.313 16.94c28.29 10.075 68.477 16.56 112.906 16.56c44.428 0 84.648-6.485 112.937-16.56c14.146-5.04 25.29-11.024 32.314-16.94c7.023-5.913 9.562-11.095 9.562-15.624c0-4.527-2.54-9.68-9.562-15.594c-7.024-5.914-18.168-11.9-32.313-16.937c-10.984-3.913-23.774-7.277-37.905-9.938zm-234.03 70.843c-5.044 82.403-40.128 102.984-71.44 125.095c20.57 4.536 43.68 8.43 66.94 7.563c25.204-9.846 51.443-36.288 70.405-57.47c-8.154 19.774-19.6 39.024-34.563 58.376L106.97 492.53c44.538-7.387 86.41-17.235 129.25-46.374c-7.942-20.833-13.978-41.123-18.22-61.187c16.816 26.81 35.478 52.765 57.125 76.655c.03.033.064.06.094.094l31.967 30.655c25.176-31.428 43.748-65.536 58.563-99.875c-.153 15.875-1.45 32.3-5 49.594c43.973 9.924 87.933 3.585 131.906 2.53c-44.83-18.237-70.754-54.62-75.344-123.093c-9.53 7.867-22.24 14.347-37.5 19.783c-31.12 11.084-72.99 17.656-119.218 17.656c-46.227 0-88.068-6.573-119.188-17.658c-15.56-5.542-28.473-12.174-38.062-20.25c-.6-.504-1.175-1.01-1.75-1.53z"></path></symbol>

<symbol viewBox="0 0 24 24" id="saw"><path fill="currentColor" d="M13 11a1 1 0 0 1 1 1a1 1 0 0 1-1 1a1 1 0 0 1-1-1a1 1 0 0 1 1-1M7.86 6.25A7 7 0 0 1 13 4c3.5 0 6.44 2.61 6.93 6H22v2h-6a3 3 0 0 0-3-3a3 3 0 0 0-3 3H2v-2h.05c.2-2.27 1.09-4.34 2.45-6zM6.73 7.89L5.06 6.77c-.53.98-.88 2.07-1 3.23h2.01c.11-.75.33-1.46.66-2.11m.67 7.51L6 14h5.79c.24.42.71.7 1.21.7s.97-.28 1.21-.7H20v1.4c-1.61-.98-1.54.35-1.54.35v1.96l-1.96 1.96c-.5-1.75-1.4-.77-1.4-.77l-1.4 1.4h-2.8c.98-1.61-.35-1.54-.35-1.54H8.59L6.63 16.8c1.75-.49.77-1.4.77-1.4"></path></symbol>


</svg>