<svg display="none" xmlns="http://www.w3.org/2000/svg">
<symbol viewBox="0 0 24 24" id="mail"><path fill="currentColor" d="M20 4H6c-1.103 0-2 .897-2 2v5h2V8l6.4 4.8a1.001 1.001 0 0 0 1.2 0L20 8v9h-8v2h8c1.103 0 2-.897 2-2V6c0-1.103-.897-2-2-2m-7 6.75L6.666 6h12.668z"></path><path fill="currentColor" d="M2 12h7v2H2zm2 3h6v2H4zm3 3h4v2H7z"></path></symbol>

<symbol viewBox="0 0 24 24" id="phone"><path d="M20.487 17.14l-4.065-3.696a1.001 1.001 0 0 0-1.391.043l-2.393 2.461c-.576-.11-1.734-.471-2.926-1.66c-1.192-1.193-1.553-2.354-1.66-2.926l2.459-2.394a1 1 0 0 0 .043-1.391L6.859 3.513a1 1 0 0 0-1.391-.087l-2.17 1.861a1 1 0 0 0-.29.649c-.015.25-.301 6.172 4.291 10.766C11.305 20.707 16.323 21 17.705 21c.202 0 .326-.006.359-.008a.992.992 0 0 0 .648-.291l1.86-2.171a.997.997 0 0 0-.085-1.39z" fill="currentColor"></path></symbol>

<symbol viewBox="0 0 24 24" id="globe"><path fill="currentColor" d="M12 2C6.486 2 2 6.486 2 12s4.486 10 10 10s10-4.486 10-10S17.514 2 12 2m7.931 9h-2.764a14.67 14.67 0 0 0-1.792-6.243A8.013 8.013 0 0 1 19.931 11M12.53 4.027c1.035 1.364 2.427 3.78 2.627 6.973H9.03c.139-2.596.994-5.028 2.451-6.974c.172-.01.344-.026.519-.026c.179 0 .354.016.53.027m-3.842.7C7.704 6.618 7.136 8.762 7.03 11H4.069a8.013 8.013 0 0 1 4.619-6.273M4.069 13h2.974c.136 2.379.665 4.478 1.556 6.23A8.01 8.01 0 0 1 4.069 13m7.381 6.973C10.049 18.275 9.222 15.896 9.041 13h6.113c-.208 2.773-1.117 5.196-2.603 6.972c-.182.012-.364.028-.551.028c-.186 0-.367-.016-.55-.027m4.011-.772c.955-1.794 1.538-3.901 1.691-6.201h2.778a8.005 8.005 0 0 1-4.469 6.201"></path></symbol>

<symbol viewBox="0 0 24 24" id="university"><path fill="currentColor" d="M21 10a1 1 0 0 0 1-1V6a.999.999 0 0 0-.684-.948l-9-3a1.002 1.002 0 0 0-.632 0l-9 3A.999.999 0 0 0 2 6v3a1 1 0 0 0 1 1h1v7.184A2.995 2.995 0 0 0 2 20v2a1 1 0 0 0 1 1h18a1 1 0 0 0 1-1v-2a2.995 2.995 0 0 0-2-2.816V10Zm-1 11H4v-1a1.001 1.001 0 0 1 1-1h14a1.001 1.001 0 0 1 1 1ZM6 17v-7h2v7Zm4 0v-7h4v7Zm6 0v-7h2v7ZM4 8V6.72l8-2.666l8 2.667V8Z"></path></symbol>

<symbol viewBox="0 0 24 24" id="education"><path fill="currentColor" d="M12 .807L23.835 8.5L22 9.693V16h-2v-5.007l-1 .65V17.5c0 1.47-1.014 2.615-2.253 3.339c-1.265.737-2.945 1.16-4.747 1.16s-3.483-.423-4.747-1.16C6.013 20.115 5 18.969 5 17.499v-5.856L.165 8.5zM7 12.943V17.5c0 .463.33 1.067 1.261 1.61c.908.53 2.227.89 3.739.89s2.831-.36 3.739-.89c.932-.543 1.26-1.147 1.26-1.61v-4.557l-5 3.25zM20.165 8.5L12 3.193L3.835 8.5L12 13.807z"></path></symbol>

</svg>


